<svg width="196" height="57" viewBox="0 0 196 57" fill="none" xmlns="http://www.w3.org/2000/svg">
<g clip-path="url(#clip0_274_266)">
<path d="M75.8646 19H101.153V12.6667H75.8646C72.0801 12.6667 68.6967 14.3394 66.3788 16.9751C64.0609 14.3394 60.6774 12.6667 56.8929 12.6667H37.9268V0H31.6048V14.3779C29.7427 13.2994 27.5896 12.6722 25.2827 12.6722H0V19.0055H25.2882C28.7815 19.0055 31.6102 21.8393 31.6102 25.3388V31.6722C31.6102 35.1717 28.7815 38.0055 25.2882 38.0055H3.16377C1.41711 38.0055 0 39.4251 0 41.1749V57.011H6.32205V44.3443H25.2882C32.2694 44.3443 37.9323 38.6713 37.9323 31.6777V25.3443C37.9323 23.0333 37.3061 20.8763 36.2296 19.011H56.9039C60.3973 19.011 63.226 21.8448 63.226 25.3443V44.3443H69.548V42.6386C71.41 43.7171 73.5632 44.3443 75.8701 44.3443H101.158V38.011H75.8701C72.3767 38.011 69.548 35.1772 69.548 31.6777V25.3443C69.548 21.8448 72.3767 19.011 75.8701 19.011" fill="#FF5050"/>
<path d="M151.229 13.1666V18.5H126.441C122.671 18.5 119.619 21.5584 119.619 25.3333V31.6666C119.619 35.4415 122.671 38.5 126.441 38.5H151.229V43.8333H126.441C119.737 43.8333 114.297 38.385 114.297 31.6666V25.3333C114.297 18.615 119.737 13.1666 126.441 13.1666H151.229Z" stroke="#FF5050"/>
<path d="M164.39 25.8333H195.5V31.6611C195.5 38.3795 190.06 43.8278 183.356 43.8278H158.568V38.4945H183.356C187.126 38.4945 190.178 35.436 190.178 31.6611V31.1611H189.678H158.568V25.3333C158.568 18.615 164.008 13.1666 170.712 13.1666H195.5V18.5H170.712C166.941 18.5 163.89 21.5584 163.89 25.3333V25.8333H164.39Z" stroke="#FF5050"/>
</g>
<defs>
<clipPath id="clip0_274_266">
<rect width="196" height="57" fill="white"/>
</clipPath>
</defs>
</svg>
