<svg width="201" height="57" viewBox="0 0 201 57" fill="none" xmlns="http://www.w3.org/2000/svg">
<path d="M172.213 39.3646H186.538C190.755 39.3646 194.201 36.064 194.201 31.9512V25.0378C194.201 20.925 190.755 17.6244 186.538 17.6244H172.213C167.996 17.6244 164.55 20.925 164.55 25.0378V31.9512C164.55 36.064 167.996 39.3646 172.213 39.3646ZM172.213 11.7109H186.538C194.188 11.7109 200.363 17.6963 200.363 25.0378V31.9512C200.363 39.2927 194.188 45.278 186.538 45.278H172.213C164.563 45.278 158.388 39.2927 158.388 31.9512V25.0378C158.388 17.6963 164.563 11.7109 172.213 11.7109Z" stroke="#FF5050"/>
<path d="M146.077 31.9512V31.4512H145.577H125.996V25.5378H151.781L151.77 45.278H125.496C118.396 45.278 112.609 39.3246 112.609 31.9512V25.0378C112.609 17.6644 118.396 11.7109 125.496 11.7109H151.77V17.6244H125.496C121.506 17.6244 118.303 20.9569 118.303 25.0378V31.9512C118.303 36.0321 121.506 39.3646 125.496 39.3646H145.577H146.077V38.8646V31.9512Z" stroke="#FF5050"/>
<path d="M74.8539 18.9963H99.8052V12.6642H74.8539C71.1199 12.6642 67.7815 14.3366 65.4945 16.9718C63.2074 14.3366 59.869 12.6642 56.135 12.6642H37.4215V0H31.1837V14.3752C29.3465 13.2969 27.2221 12.6697 24.9459 12.6697H0V19.0018H24.9513C28.3981 19.0018 31.1891 21.8351 31.1891 25.3339V31.6661C31.1891 35.1649 28.3981 37.9982 24.9513 37.9982H3.12162C1.39823 37.9982 0 39.4175 0 41.167V57H6.23783V44.3358H24.9513C31.8395 44.3358 37.427 38.6638 37.427 31.6716V25.3394C37.427 23.0289 36.8091 20.8723 35.7469 19.0073H56.1459C59.5926 19.0073 62.3837 21.8406 62.3837 25.3394V44.3358H68.6215V42.6303C70.4587 43.7086 72.5832 44.3358 74.8593 44.3358H99.8106V38.0037H74.8593C71.4126 38.0037 68.6215 35.1704 68.6215 31.6716V25.3394C68.6215 21.8406 71.4126 19.0073 74.8593 19.0073" fill="#FF5050"/>
</svg>
